<svg width="10" height="9" viewBox="0 0 10 9" xmlns="http://www.w3.org/2000/svg" xmlns:xlink="http://www.w3.org/1999/xlink"><defs><path d="M4.856 2.128l.02.346-.36-.042C3.2 2.27 2.052 1.72 1.076.792L.6.335l-.123.34c-.26.755-.094 1.553.448 2.09.29.296.224.34-.275.162-.173-.056-.325-.1-.34-.078-.05.05.124.692.26.947.19.353.572.7.99.904l.355.16-.42.008c-.404 0-.418.007-.375.155.144.46.715.947 1.35 1.16l.45.147-.39.226c-.58.325-1.258.508-1.938.522-.325.007-.592.036-.592.057 0 .07.882.466 1.395.62 1.54.46 3.367.263 4.74-.52.975-.56 1.95-1.668 2.406-2.74.246-.573.492-1.618.492-2.12 0-.325.022-.367.426-.755.24-.226.463-.473.506-.544.072-.134.065-.134-.303-.014-.614.212-.7.183-.397-.134.224-.226.49-.636.49-.756 0-.02-.107.014-.23.078-.13.07-.42.176-.636.24l-.39.12-.354-.233c-.195-.127-.47-.27-.614-.31-.37-.1-.933-.086-1.265.027C5.36.412 4.79 1.23 4.855 2.128z" id="a"/></defs><use fill-rule="evenodd" xlink:href="#a"/></svg>