<svg width="11" height="12" viewBox="402 325 11 12" xmlns="http://www.w3.org/2000/svg" xmlns:xlink="http://www.w3.org/1999/xlink"><defs><path d="M.193 5.857c.012 1.007.402 2.01 1.17 2.78 1.56 1.558 4.095 1.562 5.656 0l1.01-1.012c1.56-1.557 1.563-4.093 0-5.655C6.472.41 3.936.407 2.375 1.97L1.362 2.98C.595 3.75.205 4.753.192 5.76v.097z" id="a"/></defs><g fill="none" fill-rule="evenodd" transform="translate(403 326)"><mask id="b" fill="#fff"><use xlink:href="#a"/></mask><path d="M1.363 8.636C-.2 7.074-.195 4.538 1.363 2.98l1.012-1.012c1.56-1.56 4.097-1.558 5.656 0 1.563 1.563 1.56 4.1 0 5.657L7.02 8.637c-1.562 1.562-4.097 1.56-5.657 0z" stroke="#000" stroke-width="3" mask="url(#b)"/></g><g fill="none" fill-rule="evenodd" stroke-linecap="square" stroke="#000" stroke-width="1.5"><path d="M403.58 335.066l2.803-2.802M409.035 329.61l2.803-2.8"/></g></svg>